HIERARCHY
ROOT root
{
	OFFSET 0.000000 0.000000 0.000000
	CHANNELS 6 Xposition Yposition Zposition Zrotation Yrotation Xrotation
	JOINT lhip
	{
		OFFSET 0.058581 -0.082280 -0.017664
		CHANNELS 3 Zrotation Yrotation Xrotation
		JOINT lknee
		{
			OFFSET 0.043451 -0.386469 0.008037
			CHANNELS 3 Zrotation Yrotation Xrotation
			JOINT lankle
			{
				OFFSET -0.014790 -0.426874 -0.037428
				CHANNELS 3 Zrotation Yrotation Xrotation
				JOINT ltoe
				{
					OFFSET 0.041054 -0.060286 0.122042
					CHANNELS 3 Zrotation Yrotation Xrotation
					End Site
					{
						OFFSET 0.000000 0.000000 0.000000
					}
				}
			}
		}
	}
	JOINT rhip
	{
		OFFSET -0.060310 -0.090513 -0.013543
		CHANNELS 3 Zrotation Yrotation Xrotation
		JOINT rknee
		{
			OFFSET -0.043257 -0.383688 -0.004843
			CHANNELS 3 Zrotation Yrotation Xrotation
			JOINT rankle
			{
				OFFSET 0.019056 -0.420046 -0.034562
				CHANNELS 3 Zrotation Yrotation Xrotation
				JOINT rtoe
				{
					OFFSET -0.034840 -0.062106 0.130323
					CHANNELS 3 Zrotation Yrotation Xrotation
					End Site
					{
						OFFSET 0.000000 0.000000 0.000000
					}
				}
			}
		}
	}
	JOINT lowerback
	{
		OFFSET 0.004439 0.124404 -0.038385
		CHANNELS 3 Zrotation Yrotation Xrotation
		JOINT upperback
		{
			OFFSET 0.004488 0.137956 0.026820
			CHANNELS 3 Zrotation Yrotation Xrotation
			JOINT chest
			{
				OFFSET -0.002265 0.056032 0.002855
				CHANNELS 3 Zrotation Yrotation Xrotation
				JOINT lowerneck
				{
					OFFSET -0.013390 0.211636 -0.033468
					CHANNELS 3 Zrotation Yrotation Xrotation
					JOINT upperneck
					{
						OFFSET 0.010113 0.088937 0.050410
						CHANNELS 3 Zrotation Yrotation Xrotation
						End Site
						{
							OFFSET 0.000000 0.000000 0.000000
						}
					}
				}
				JOINT lclavicle
				{
					OFFSET 0.071702 0.114000 -0.018898
					CHANNELS 3 Zrotation Yrotation Xrotation
					JOINT lshoulder
					{
						OFFSET 0.122921 0.045205 -0.019046
						CHANNELS 3 Zrotation Yrotation Xrotation
						JOINT lelbow
						{
							OFFSET 0.255332 -0.015649 -0.022946
							CHANNELS 3 Zrotation Yrotation Xrotation
							JOINT lwrist
							{
								OFFSET 0.265709 0.012698 -0.007375
								CHANNELS 3 Zrotation Yrotation Xrotation
								End Site
								{
									OFFSET 0.000000 0.000000 0.000000
								}
							}
						}
					}
				}
				JOINT rclavicle
				{
					OFFSET -0.082954 0.112472 -0.023707
					CHANNELS 3 Zrotation Yrotation Xrotation
					JOINT rshoulder
					{
						OFFSET -0.113228 0.046853 -0.008472
						CHANNELS 3 Zrotation Yrotation Xrotation
						JOINT relbow
						{
							OFFSET -0.260127 -0.014369 -0.031269
							CHANNELS 3 Zrotation Yrotation Xrotation
							JOINT rwrist
							{
								OFFSET -0.269108 0.006794 -0.006027
								CHANNELS 3 Zrotation Yrotation Xrotation
								End Site
								{
									OFFSET 0.000000 0.000000 0.000000
								}
							}
						}
					}
				}
			}
		}
	}
}
MOTION
Frames: 10
Frame Time: 0.033333
0.331547 -0.871364 0.980117 -176.399574 1.038110 91.053904 6.389779 5.419980 4.687226 -1.854009 -1.270942 -5.057546 -0.595747 7.559573 -7.915144 0.000000 -0.000000 0.000000 -6.026636 -5.501708 1.333524 1.028554 -8.288058 -1.548803 3.539721 -6.112724 -5.600329 0.000000 -0.000000 0.000000 -1.721492 0.334366 -4.013290 1.076355 -1.187405 8.277257 0.797710 -1.050157 -3.680779 -0.213640 0.380425 -2.503750 -0.128658 -1.765546 7.408079 -31.571659 -1.036732 6.110741 -57.460277 -8.749049 11.125458 9.846848 -19.089767 -6.907917 5.044667 -15.117818 -12.253364 28.999320 8.440382 6.791154 53.631055 10.971076 8.606394 -9.200364 7.982735 -19.982655 -1.721913 12.057042 -18.445667 
0.331667 -0.872020 0.979993 -176.248206 1.218840 91.130880 6.622026 5.406060 4.478739 -1.890560 -1.249770 -4.946195 -0.583806 7.371766 -7.960042 0.000000 -0.000000 0.000000 -5.792178 -5.606406 1.173001 0.990774 -8.277123 -1.436589 3.708460 -6.129322 -5.559202 0.000000 -0.000000 0.000000 -1.458922 0.187964 -3.865274 0.964938 -1.117682 7.947331 0.797563 -1.007381 -3.399685 -0.122334 0.369516 -2.744419 -0.252780 -1.836991 7.524189 -31.395639 -0.953660 5.861897 -57.984880 -8.650377 11.015174 10.230598 -19.058143 -6.708738 5.520136 -14.235746 -11.915901 28.993409 8.486077 6.757572 53.730103 10.994543 8.497477 -9.320367 8.121623 -19.864718 -1.817679 11.863293 -18.483194 
0.331589 -0.872918 0.980185 -176.207929 1.339470 91.085196 6.742923 5.477299 4.433416 -1.872353 -1.400709 -4.898802 -0.550962 7.409382 -7.939741 0.000000 -0.000000 0.000000 -5.641471 -5.679438 1.015148 0.901540 -8.214182 -1.199422 3.619679 -6.160961 -5.643323 0.000000 -0.000000 0.000000 -1.285032 0.136710 -3.408765 0.953167 -1.065532 7.724021 0.756867 -0.893266 -3.481594 -0.092852 0.248616 -2.871448 -0.402387 -1.667255 7.509263 -31.451287 -0.828921 5.659713 -58.332406 -8.131687 11.349203 10.817741 -19.488782 -6.466361 6.581458 -12.544314 -10.966678 29.015374 8.433579 6.661445 53.741712 10.895634 8.556591 -9.399860 8.371740 -19.952123 -2.181436 11.681074 -18.498843 
0.332047 -0.873822 0.980704 -176.201606 1.345381 91.138396 6.664055 5.259741 4.395705 -1.770871 -1.285858 -5.022743 -0.477178 7.453612 -7.844866 0.000000 -0.000000 0.000000 -5.655556 -5.690165 0.814570 0.957090 -8.160798 -0.993163 3.544647 -6.255230 -5.763319 0.000000 -0.000000 0.000000 -1.219719 0.257370 -3.467014 0.892659 -1.030102 8.067837 0.635810 -0.879408 -3.623973 -0.071156 0.312415 -2.775009 -0.193434 -1.898738 7.239805 -31.687913 -0.293734 5.525274 -57.985988 -8.142383 10.671306 11.446752 -20.083448 -7.475259 3.969389 -13.343655 -9.558938 29.067870 8.492010 6.444178 53.764541 10.903860 8.194791 -9.515392 7.968609 -20.241952 -0.734084 11.984354 -17.867659 
0.332125 -0.873852 0.980749 -176.099178 1.348955 91.129483 6.664823 5.222391 4.410333 -1.746355 -1.309650 -5.067526 -0.461695 7.404338 -7.781391 0.000000 -0.000000 0.000000 -5.644193 -5.736574 0.918102 0.971042 -8.198866 -1.132526 3.521447 -6.302334 -5.756131 0.000000 -0.000000 0.000000 -1.219974 0.251441 -3.479520 0.880184 -1.074294 8.135662 0.642732 -0.891877 -3.603365 -0.074193 0.345292 -2.795304 -0.178395 -1.891411 7.188699 -31.639026 -0.282446 5.535165 -58.049380 -8.096833 10.621329 11.465989 -20.163053 -7.612860 3.982117 -13.511336 -9.784821 29.036728 8.503079 6.452946 53.745407 10.901680 8.184611 -9.484159 8.005858 -20.216541 -0.715753 12.046369 -17.890549 
0.332428 -0.874783 0.980869 -176.071270 1.340487 91.224494 6.643914 5.250958 4.207443 -1.749874 -1.341835 -5.020882 -0.470383 7.396800 -7.694777 0.000000 -0.000000 0.000000 -5.641443 -5.753442 0.763035 1.002796 -8.210511 -1.175496 3.472555 -6.369486 -5.677566 0.000000 -0.000000 0.000000 -1.199929 0.295417 -3.422061 0.840772 -1.052275 8.107665 0.603531 -0.876983 -3.579504 -0.073064 0.371974 -2.862351 -0.128926 -1.881716 7.100276 -31.548027 -0.199897 5.469605 -58.158173 -8.041291 10.683860 11.679951 -20.125474 -7.564138 3.940995 -13.336185 -9.663161 29.081793 8.490277 6.427241 53.689608 10.901866 8.217297 -9.521504 8.077036 -20.230485 -0.691394 11.970703 -17.903182 
0.332583 -0.875164 0.980891 -175.976412 1.331002 91.256966 6.626659 5.248600 4.136691 -1.728435 -1.421169 -5.024225 -0.493352 7.316795 -7.679780 0.000000 -0.000000 0.000000 -5.646872 -5.783278 0.795309 1.037797 -8.275097 -1.353426 3.509333 -6.357309 -5.615611 0.000000 -0.000000 0.000000 -1.190291 0.306879 -3.379568 0.827495 -1.052453 8.207872 0.595954 -0.891512 -3.692315 -0.110943 0.481710 -2.819738 -0.165099 -1.750733 7.128845 -31.457312 -0.216474 5.473602 -58.240436 -7.923808 10.741199 11.786685 -20.002121 -7.594274 4.040348 -13.413785 -9.675442 29.054573 8.504485 6.468479 53.647327 10.894008 8.212539 -9.484636 8.067037 -20.336167 -0.774169 12.058411 -17.916410 
0.332848 -0.875419 0.980767 -175.868719 1.299995 91.277080 6.604908 5.229061 4.111819 -1.729069 -1.469520 -5.126071 -0.549744 7.303993 -7.628087 0.000000 -0.000000 0.000000 -5.689231 -5.834842 0.807287 1.074804 -8.316779 -1.407622 3.495785 -6.421007 -5.669271 0.000000 -0.000000 0.000000 -1.251562 0.268823 -3.262955 0.803625 -1.028115 8.081943 0.633222 -0.844273 -3.608463 -0.079718 0.547818 -2.874163 -0.286536 -1.733157 7.200523 -31.348184 -0.181437 5.462452 -58.327461 -7.907701 10.751558 11.821988 -19.863943 -7.508229 4.013094 -13.566725 -9.740055 28.962354 8.464672 6.441655 53.688311 10.903158 8.268090 -9.468106 8.067095 -20.276243 -1.026903 12.048676 -17.971306 
0.333097 -0.875933 0.980803 -175.813339 1.288221 91.332984 6.584857 5.188466 4.008800 -1.712185 -1.451127 -5.138592 -0.521019 7.326518 -7.614750 0.000000 -0.000000 0.000000 -5.690132 -5.853687 0.726908 1.079215 -8.355940 -1.420459 3.534692 -6.414949 -5.641868 0.000000 -0.000000 0.000000 -1.263341 0.290369 -3.251851 0.802239 -0.990374 8.093007 0.642748 -0.838674 -3.530025 -0.160251 0.647969 -2.901985 -0.314707 -1.725085 7.046454 -31.299989 -0.169765 5.445224 -58.325873 -7.968844 10.684676 11.903017 -19.630377 -7.543186 3.994944 -13.575557 -9.842642 28.916624 8.482159 6.417074 53.648320 10.972766 8.232416 -9.470662 7.893833 -20.240087 -0.889557 12.001285 -17.954155 
0.333302 -0.876177 0.980908 -175.734065 1.226324 91.314506 6.521430 5.181927 4.053811 -1.725972 -1.495057 -5.238962 -0.525504 7.348690 -7.527531 0.000000 -0.000000 0.000000 -5.745944 -5.917233 0.780846 1.088063 -8.375208 -1.494803 3.531003 -6.385675 -5.582358 0.000000 -0.000000 0.000000 -1.329144 0.310274 -3.270345 0.774129 -0.987268 8.298103 0.645993 -0.822317 -3.549237 -0.190146 0.729403 -2.992026 -0.261957 -1.683024 7.076524 -31.325924 -0.194261 5.478923 -58.134995 -8.016794 10.573912 11.914281 -19.507076 -7.517962 4.007479 -13.813561 -9.811940 29.027176 8.541672 6.479521 53.458235 11.042530 8.119236 -9.457094 7.876625 -20.281064 -0.923439 12.168421 -17.853967 
